<?xml version="1.0" encoding="UTF-8"?>
<!DOCTYPE svg PUBLIC "-//W3C//DTD SVG 1.1//EN" "http://www.w3.org/Graphics/SVG/1.1/DTD/svg11.dtd">
<!-- Creator: CorelDRAW X7 -->
<svg xmlns="http://www.w3.org/2000/svg" xml:space="preserve" width="160.808mm" height="171.044mm" version="1.1" style="shape-rendering:geometricPrecision; text-rendering:geometricPrecision; image-rendering:optimizeQuality; fill-rule:evenodd; clip-rule:evenodd"
viewBox="0 0 491123 522386"
 xmlns:xlink="http://www.w3.org/1999/xlink">
 <defs>
  <style type="text/css">
   <![CDATA[
    .str1 {stroke:#383F89;stroke-width:232.722}
    .str0 {stroke:#FDED3B;stroke-width:232.722}
    .str2 {stroke:#20347E;stroke-width:68.4117}
    .str3 {stroke:#383F89;stroke-width:2734.94}
    .fil2 {fill:none} 
    .fil3 {fill:#143B87}
    .fil1 {fill:#383F89}
    .fil0 {fill:#FDED3B}
   ]]>
  </style>
 </defs>
 <g id="Layer_0020_1">
  <metadata id="CorelCorpID_0Corel-Layer"/>
  <g id="_1909867632">
   <path class="fil0 str0" d="M245125 1395c135109,0 244636,109528 244636,244636 0,135109 -109527,244636 -244636,244636 -135108,0 -244635,-109527 -244635,-244636 0,-135108 109527,-244636 244635,-244636z"/>
   <polygon class="fil0 str0" points="264641,493006 269473,502601 245694,522237 220580,502822 224533,493959 209469,503005 171436,501473 188998,471849 245592,464000 303409,471858 319320,501462 284162,503002 "/>
   <polygon class="fil1 str0" points="300434,476148 311716,497139 285187,498301 254077,482370 263649,501378 245598,516284 226317,501378 234796,482370 208266,498301 179413,497139 191857,476148 245598,468696 "/>
   <path class="fil1" d="M252983 364562l205 -9572 -10188 9026 0 546 9983 0zm205 -19760l205 -37879 0 0 -2940 1505 -2872 1641 -2734 1777 -2667 1846 -2598 1915 -2530 2119 -2462 2120 -2324 2325 0 41845 20922 -19214zm8478 19760l21470 0 0 -36785 -21470 19829 0 16956zm21470 -46904l0 -19281 0 0 -2735 478 -2804 547 -2735 547 -2734 616 -2804 752 -2735 820 -2735 889 -2803 1026 615 33366 21470 -19760zm9640 46904l21470 0 0 -16956 -21470 -19829 0 36785zm21470 -27144l547 -36717 0 0 -2530 -615 -2667 -479 -2666 -410 -2667 -273 -2735 -274 -2735 -137 -2735 -68 -2735 -68 -547 19281 21470 19760zm29401 27144l0 -50323 0 0 -2394 -1641 -2393 -1572 -2461 -1436 -2530 -1368 -2530 -1299 -2666 -1162 -2667 -1162 -2735 -1094 0 41844 19213 19213 1163 0zm-11898 -546l-8478 -7932 0 8478 8547 0 -69 -546zm22632 546l22632 0 0 0 -616 -3077 -683 -3008 -821 -2940 -957 -2940 -1026 -2872 -1230 -2803 -1231 -2735 -1436 -2735 -1504 -2667 -1641 -2529 -1710 -2530 -1846 -2462 -1982 -2393 -2052 -2324 -2188 -2257 -2256 -2119 547 42391zm-71177 -69536l0 -158353 -108646 -38426 0 -5128 114253 33366 74664 -1709 0 20375 -29469 0 68 -10187 -40751 889 0 162592 -10119 0 0 -3419zm-167447 25914l109671 0 0 18119 -109671 0 0 -18119zm0 24956l109671 0 0 18666 -109671 0 0 -18666zm0 -50459l109671 0 0 18666 -109671 0 0 -18666zm0 -25230l109671 0 0 18666 -109671 0 0 -18666zm0 -25230l109671 0 0 18666 -109671 0 0 -18666zm0 -25230l109671 0 0 18666 -109671 0 0 -18666zm0 -24956l109671 0 0 18119 -109671 0 0 -18119zm0 -25504l109671 0 0 18666 -109671 0 0 -18666zm0 -25230l109671 0 0 18598 -109671 0 0 -18598zm261324 232813l-261871 0 0 -6564 261871 0 0 6564z"/>
   <polygon class="fil2 str1" points="115757,244977 225428,244977 225428,263643 115757,263643 "/>
   <polygon class="fil2 str1" points="115757,219747 225428,219747 225428,238413 115757,238413 "/>
   <polygon class="fil2 str1" points="115757,194791 225428,194791 225428,212910 115757,212910 "/>
   <polygon class="fil2 str1" points="115757,169287 225428,169287 225428,187953 115757,187953 "/>
   <polygon class="fil2 str1" points="115757,144057 225428,144057 225428,162655 115757,162655 "/>
   <polygon class="fil1" points="174558,436628 174558,436628 175447,436902 176268,436970 176268,436970 177020,436902 177703,436765 178319,436492 178866,436150 179413,435671 179891,435192 180233,434577 180575,433893 180575,433893 180712,433415 180780,432868 180849,432389 180849,431910 180849,431432 180780,431021 180644,430543 180507,430133 180302,429723 180028,429381 179755,429039 179413,428697 179071,428355 178661,428150 178250,427876 177772,427671 177772,427671 176883,427466 175994,427398 175994,427398 175310,427398 174627,427603 173943,427876 173328,428218 172849,428697 172370,429244 171960,429927 171618,430611 171618,430611 171481,431090 171413,431569 171345,432047 171345,432457 171345,432936 171413,433415 171550,433825 171755,434235 171755,434235 171960,434645 172234,434987 172507,435329 172849,435671 173259,435944 173601,436218 174079,436423 "/>
   <polygon class="fil3" points="459266,224875 451472,225490 451472,225490 449215,225696 447369,225696 447369,225696 445865,225696 444566,225559 443335,225422 442310,225149 442310,225149 441489,224875 440737,224602 439985,224191 439301,223781 440190,234447 459950,232738 "/>
   <path class="fil1 str1" d="M245598 12985l0 0 -6016 68 -5949 274 -5948 342 -5880 547 -5812 683 -5812 821 -5744 889 -5743 1094 -5606 1231 -5607 1367 -5538 1504 -5539 1641 -5401 1778 -5402 1914 -5264 1983 -5265 2188 -5197 2256 -5128 2394 -5059 2461 -4992 2666 -4854 2735 -4855 2872 -4786 2940 -4649 3077 -4581 3214 -4513 3281 -4444 3419 -4376 3487 -4239 3624 -4171 3692 -4102 3829 -3966 3897 -3966 3966 -3760 4102 -3693 4171 -3623 4239 -3487 4376 -3419 4445 -3282 4512 -3214 4581 -3077 4650 -2939 4786 -2872 4854 -2735 4855 -2667 4991 -2461 5060 -2393 5128 -2257 5196 -2187 5265 -1984 5265 -1914 5401 -1778 5402 -1641 5538 -1504 5538 -1367 5607 -1231 5607 -1094 5743 -957 5744 -752 5811 -684 5812 -547 5880 -342 5949 -273 5948 -69 6017 0 0 69 4923 136 4991 274 4923 342 4855 478 4854 547 4855 684 4786 752 4718 821 4786 957 4649 1025 4718 1163 4581 1231 4581 1299 4581 1367 4513 1504 4513 1573 4375 1709 4445 1710 4307 1846 4308 1914 4239 1983 4239 2120 4171 2188 4102 2188 4103 2324 4034 2393 3966 2530 3897 2530 3829 2598 3829 2735 3760 2735 3692 2872 3624 2940 3624 2940 3487 3077 3487 3077 3419 3213 3282 3282 3282 3282 3213 3350 3146 3487 3076 3487 3009 3556 2940 3624 2872 3624 2803 3760 2735 3761 2666 3897 2598 3897 2462 3898 2461 4033 2325 4035 2325 4102 2188 4171 2119 4170 1983 4240 1983 4307 1846 4308 1846 4376 1641 4444 1641 4444 1504 4513 1436 4513 1368 30289 -52443 0 0 -3760 -752 -3692 -889 -3693 -889 -3624 -1025 -3623 -1094 -3624 -1163 -3487 -1230 -3556 -1368 -3487 -1367 -3418 -1436 -3419 -1573 -3350 -1572 -3282 -1641 -3282 -1778 -3282 -1778 -3145 -1914 -3214 -1915 -3077 -1982 -3076 -2120 -3009 -2120 -2940 -2188 -2940 -2256 -2872 -2256 -2803 -2393 -2804 -2462 -2666 -2461 -2667 -2530 -2666 -2598 -2530 -2667 -2461 -2667 -2462 -2803 -2393 -2803 -2325 -2803 -2256 -2940 -2188 -2941 -2188 -3008 -2051 -3077 -2051 -3077 -1915 -3145 -1914 -3214 -1846 -3213 -1710 -3282 -1709 -3282 -1641 -3350 -1504 -3419 -1504 -3418 -1368 -3488 -1367 -3487 -1231 -3555 -1231 -3555 -1094 -3624 -1025 -3624 -958 -3624 -889 -3761 -820 -3692 -684 -3760 -615 -3829 -616 -3829 -410 -3829 -410 -3829 -342 -3897 -205 -3966 -137 -3897 0 -3966 0 0 0 -4512 205 -4445 274 -4444 410 -4444 479 -4376 615 -4376 684 -4308 820 -4239 958 -4239 1025 -4239 1094 -4171 1231 -4102 1368 -4035 1367 -4033 1572 -4035 1573 -3897 1709 -3897 1778 -3829 1914 -3829 1983 -3692 2052 -3692 2119 -3624 2256 -3556 2257 -3555 2393 -3419 2461 -3418 2598 -3282 2599 -3282 2735 -3214 2735 -3077 2871 -3076 2940 -3009 3009 -2940 3008 -2872 3145 -2735 3214 -2735 3282 -2598 3282 -2530 3419 -2529 3418 -2394 3556 -2256 3555 -2256 3624 -2120 3692 -2051 3692 -1983 3829 -1914 3829 -1778 3897 -1709 3898 -1573 4034 -1504 4034 -1436 4034 -1368 4102 -1230 4171 -1094 4239 -1026 4239 -889 4239 -820 4308 -752 4376 -616 4376 -478 4444 -411 4445 -273 4444 -137 4512 -68 0 0 4513 68 4444 137 4445 273 4444 411 4376 478 4308 616 4307 752 4308 820 4239 889 4171 1026 4170 1094 4103 1230 4102 1368 4034 1436 3966 1504 3966 1573 3897 1709 3829 1778 3760 1914 3761 1983 3692 2051 3624 2120 3555 2256 3488 2256 3486 2394 3351 2529 3350 2530 3282 2598 3145 2735 3146 2735 3076 2872 3009 2940 2871 3009 2872 3076 2803 3077 2667 3214 2666 3282 2530 3282 2462 3418 2393 3419 2325 3555 2256 3556 2119 3624 2052 3692 1982 3692 1847 3829 1846 3829 1641 3897 1641 3897 1504 4035 1436 4033 1299 4035 1231 4102 1162 4171 1025 4239 889 4239 821 4239 752 4308 547 4376 547 4376 342 4444 342 4444 136 4445 69 4512 0 0 -69 3966 -136 3897 -205 3966 -274 3897 -410 3829 -479 3829 -547 3829 -615 3829 -752 3760 -821 3692 -820 3761 -958 3624 -1025 3624 -1163 3624 -1162 3555 -1230 3555 -1368 3487 -1436 3488 -1436 3418 -1572 3419 -1573 3350 -1709 3282 -1778 3282 -1778 3213 -1914 3214 -1983 3145 -1983 3077 -2119 3077 -2120 3008 -2188 2941 -2256 2940 -2325 2803 -2393 2803 -2461 2803 -2462 2667 -2598 2667 -2598 2598 -2667 2530 -2735 2461 -2735 2462 -2803 2393 -2872 2256 -2940 2256 -3008 2188 -3009 2120 -3008 2120 -3145 1982 -3146 1915 -3213 1914 -3214 1778 -3282 1778 -3350 1641 -3350 1572 -3419 1573 -3419 1436 -3487 1367 -3487 1368 -3555 1230 -3556 1163 -3623 1094 -3693 1025 -3623 889 -3761 889 -3692 752 30221 52443 0 0 4581 -1368 4513 -1436 4444 -1504 4376 -1641 4376 -1641 4376 -1846 4239 -1846 4239 -1983 4239 -1983 4171 -2119 4034 -2188 4102 -2325 3966 -2325 3966 -2461 3897 -2462 3829 -2598 3761 -2666 3760 -2735 3692 -2803 3624 -2872 3556 -2940 3487 -3009 3419 -3076 3418 -3146 3282 -3213 3282 -3282 3145 -3282 3145 -3419 3009 -3487 3008 -3487 2940 -3624 2803 -3624 2804 -3692 2667 -3760 2666 -3829 2530 -3829 2461 -3897 2393 -3966 2325 -4034 2257 -4103 2187 -4102 2052 -4171 1983 -4239 1982 -4239 1778 -4308 1778 -4307 1641 -4445 1572 -4375 1505 -4513 1435 -4513 1300 -4581 1230 -4581 1094 -4581 1094 -4718 889 -4649 889 -4786 752 -4718 615 -4786 616 -4855 410 -4854 410 -4855 205 -4923 205 -4991 0 -4923 0 0 -68 -6017 -205 -5948 -410 -5949 -479 -5880 -684 -5812 -820 -5811 -957 -5744 -1094 -5743 -1231 -5607 -1368 -5607 -1504 -5538 -1641 -5538 -1709 -5402 -1915 -5401 -2051 -5265 -2119 -5265 -2257 -5196 -2393 -5128 -2530 -5060 -2598 -4991 -2735 -4855 -2871 -4854 -3009 -4786 -3077 -4650 -3145 -4581 -3282 -4512 -3418 -4445 -3488 -4376 -3623 -4239 -3693 -4171 -3829 -4102 -3897 -3966 -3965 -3897 -4103 -3829 -4171 -3692 -4307 -3624 -4308 -3487 -4444 -3419 -4513 -3281 -4581 -3214 -4717 -3077 -4718 -2940 -4855 -2872 -4923 -2735 -4991 -2666 -4991 -2461 -5128 -2394 -5197 -2256 -5264 -2188 -5334 -1983 -5333 -1914 -5470 -1778 -5470 -1641 -5538 -1504 -5606 -1367 -5675 -1231 -5676 -1094 -5743 -889 -5812 -821 -5811 -683 -5880 -547 -5949 -342 -5949 -274 -6017 -68zm-78971 415917l0 0 342 -752 342 -752 341 -616 479 -683 479 -547 478 -547 547 -547 547 -411 616 -410 683 -342 616 -342 684 -273 752 -137 683 -205 753 -68 820 0 0 0 889 0 957 136 889 206 957 341 0 0 616 206 615 341 1162 616 889 684 821 752 683 752 479 820 410 752 342 684 0 0 273 889 206 889 137 889 0 889 0 888 -137 958 -206 888 -273 821 0 0 -205 479 -273 615 -343 615 -478 684 -547 752 -752 752 -821 753 -1025 751 -13265 9026 -2872 -4239 6975 -4787 0 0 -889 -410 -821 -478 -752 -547 -684 -616 -615 -683 -547 -684 -479 -752 -410 -821 -273 -820 -274 -821 -137 -889 -68 -889 68 -957 137 -888 206 -958 273 -957zm-15589 -12581l4854 -3350 6769 3419 -12444 25025 -4717 -2325 10187 -20444 -4649 -2325zm-83211 -310143l0 0 274 -342 273 -273 342 -205 342 -205 410 -137 410 -137 410 -68 411 -69 0 0 547 69 547 137 547 205 478 342 0 0 547 478 342 547 342 616 137 683 0 684 -69 684 -205 683 -410 616 0 0 -274 273 -273 274 -342 273 -342 205 -410 137 -410 137 -342 68 -479 0 0 0 -547 0 -547 -137 -547 -273 -478 -273 0 0 -479 -479 -410 -616 -342 -615 -137 -615 0 -684 68 -684 274 -684 342 -615zm-5880 7590l0 0 273 -274 342 -273 342 -274 342 -205 342 -137 410 -136 410 -69 411 0 0 0 547 0 547 137 547 273 478 274 0 0 547 479 410 547 274 683 136 616 69 684 -137 683 -205 684 -342 615 0 0 -273 274 -342 342 -342 205 -342 205 -342 137 -410 136 -410 69 -410 68 0 0 -616 -68 -547 -137 -478 -205 -479 -342 0 0 -547 -479 -410 -547 -274 -615 -205 -684 0 -683 68 -684 274 -684 342 -615zm-479 108919l-14837 9777 13880 1231 -684 7590 -33161 -2940 684 -7590 12307 1094 -11350 -11760 889 -9641 14085 15384 19076 -13128 -889 9983zm15316 -54152l-18735 -7658 12991 23247 -2051 4923 -31383 -12854 2940 -7043 18666 7658 -13059 -23247 2051 -4991 31452 12991 -2872 6974zm18803 -30768l-25025 -18735 4581 -6085 25025 18735 -4581 6085zm36785 -42734l0 0 -137 684 -137 616 -205 615 -273 615 -547 1094 -616 957 -752 889 -684 821 -752 683 -684 616 -8751 7316 -21333 -25572 6564 -5538 0 0 1299 -1026 820 -547 958 -615 1026 -479 1162 -478 547 -137 615 -137 615 -137 684 -68 0 0 0 0 1026 68 957 206 957 273 958 410 888 479 821 547 752 683 684 753 0 0 547 752 479 752 341 752 274 820 205 753 68 820 0 821 -137 820 0 0 753 -205 683 -205 752 -69 753 -68 0 0 547 68 0 0 1025 137 957 205 889 411 821 410 683 547 684 547 547 547 479 547 0 0 410 547 410 615 479 752 342 889 342 957 205 1094 68 547 0 616 0 615 -68 615zm53742 -25503l-9163 -15521 -478 19965 -2394 1026 -14016 -14085 4034 17709 -7111 2940 -7179 -33708 4923 -2052 15179 15248 410 -21607 4923 -2051 18051 29196 -7179 2940zm32819 -7453l-4034 -33024 7521 -957 4034 33024 -7521 957zm105158 383235l0 0 -478 889 -616 820 -615 752 -752 684 -752 615 -889 547 -889 479 -1025 410 0 0 -889 273 -889 206 -889 136 -889 69 0 0 -820 -69 -821 -136 -820 -137 -821 -273 0 0 -889 -342 -888 -479 -821 -479 -752 -615 -889 -684 3009 -4376 1094 958 0 0 341 341 479 274 479 273 547 206 0 0 957 273 478 68 411 0 0 0 888 -68 889 -273 0 0 479 -206 410 -205 411 -273 410 -342 342 -342 273 -410 274 -410 205 -479 0 0 205 -478 137 -479 68 -547 68 -479 -68 -547 -68 -479 -69 -546 -205 -479 0 0 -273 -752 -479 -684 -479 -547 -547 -478 -615 -411 -684 -273 -684 -205 -752 0 0 0 -478 0 -479 68 -478 137 -479 136 0 0 -547 206 -342 205 -478 273 -479 342 -479 479 -547 615 -615 752 -2051 2940 -958 -17298 11556 -4240 1709 4718 -8000 2940 205 3009 0 0 821 -274 889 -136 820 -137 889 -68 0 0 752 68 752 68 684 137 684 205 684 273 683 342 616 342 615 411 547 478 547 479 478 615 479 547 411 684 410 684 341 683 343 821 0 0 341 1026 205 1094 137 1094 0 1025 -68 1026 -205 1025 -342 957 -411 958zm24136 -11350l0 0 -410 888 -478 889 -547 821 -616 752 -684 752 -820 684 -821 547 -888 547 0 0 -1163 479 -1162 410 -1162 205 -1231 68 0 0 -1026 -68 -1094 -137 0 0 -957 -274 -957 -341 -821 -411 -820 -478 -958 -616 2462 -4717 1162 820 0 0 411 342 478 205 479 205 615 137 0 0 684 68 615 69 0 0 547 -69 616 -68 547 -205 547 -205 0 0 478 -274 410 -342 343 -273 341 -410 274 -411 273 -410 206 -410 204 -479 0 0 69 -547 68 -478 69 -547 -69 -479 -68 -547 -137 -478 -205 -479 -205 -479 0 0 -342 -683 -478 -547 -479 -479 -479 -410 -615 -274 -615 -273 -616 -137 -684 0 0 0 -615 0 -615 137 -616 205 -615 273 0 0 -479 274 -342 205 -410 342 -478 410 -411 547 -478 684 -479 820 -1641 3145 -3145 -17025 10940 -5675 2324 4513 -7589 3897 547 3009 0 0 1094 -479 1094 -342 1162 -205 1094 -68 0 0 684 0 684 68 615 137 615 137 616 205 615 273 615 342 547 342 547 342 547 410 479 479 479 547 478 547 411 547 410 615 342 684 0 0 478 1025 342 1026 274 1025 136 1026 0 1026 -68 1094 -205 957 -274 1026zm-66322 -393286l-1094 -1504 0 0 -410 -547 -479 -547 -478 -479 -479 -410 -957 -684 -958 -546 -889 -411 -820 -273 -684 -137 -615 -68 0 0 -1162 -69 0 0 -958 69 -888 136 -889 205 -889 274 -752 410 -821 410 -684 548 -683 615 -615 615 -616 752 -478 753 -479 820 -342 889 -342 889 -205 957 -205 1025 0 0 -68 1231 68 1163 136 1094 274 1025 342 957 478 889 479 821 615 752 684 683 752 616 752 547 821 479 889 341 889 342 889 205 957 137 0 0 1025 69 0 0 889 -69 821 -68 820 -205 821 -274 752 -410 752 -410 684 -479 683 -615 1368 -1300 -1026 9504 -410 206 0 0 -1504 478 -1505 342 -1572 205 -1573 69 0 0 -1094 0 -1162 -137 0 0 -1778 -274 -1709 -342 -1572 -547 -684 -341 -753 -342 -683 -342 -684 -410 -684 -479 -615 -479 -1231 -1094 -1162 -1299 0 0 -547 -752 -547 -684 -479 -752 -478 -752 -411 -820 -342 -752 -273 -821 -273 -820 -206 -821 -205 -820 -137 -821 -68 -889 0 -888 0 -958 0 -889 68 -957 0 0 206 -1299 273 -1162 274 -1162 341 -1026 411 -957 410 -958 479 -820 478 -752 479 -752 547 -684 1026 -1163 957 -888 889 -684 0 0 1093 -752 1163 -684 1162 -547 1231 -410 1231 -342 1299 -273 1367 -137 1436 -69 0 0 1299 69 1368 137 0 0 1094 136 1025 205 1026 274 1026 342 957 410 957 410 889 547 889 615 341 206 -1025 9435zm49434 28444l0 0 -342 752 -410 684 -479 683 -478 684 -547 615 -547 547 -616 547 -615 479 0 0 -615 342 -547 273 -616 274 -615 205 -684 137 -615 137 -684 68 -683 68 0 0 -821 -68 -820 -68 -753 -137 -683 -137 -1299 -410 -1095 -410 -11008 -4513 12513 -30837 7042 2872 -4717 11555 3965 1641 0 0 821 342 888 410 889 547 958 616 888 752 821 820 410 547 342 479 342 615 273 615 0 0 410 958 274 957 205 1026 69 1094 -69 1025 -136 1094 -274 1026 -342 1094zm33093 34050l-137 -17777 -8546 11008 -6017 -4650 20512 -26255 5948 4649 -7589 9709 16068 -3145 7657 6017 -20648 3487 683 23110 -7931 -6153zm46426 36990l0 0 -684 479 -684 410 -752 342 -752 273 -752 205 -752 205 -821 69 -820 68 -137 0 0 0 -957 0 -821 -137 -820 -205 -820 -273 -684 -342 -684 -410 -615 -411 -616 -410 -1025 -889 -821 -889 -684 -820 -410 -615 -6700 -9094 26939 -19623 11692 15999 -5470 3966 -7180 -9914 -4854 3555 2188 2940 0 0 684 1026 615 1094 547 1094 410 1025 274 1026 205 1094 68 1025 -68 1026 0 0 -137 1026 -273 1025 -411 958 -478 957 -616 820 -683 889 -753 752 -888 684zm8273 40135l-2940 -7794 10666 1094 17846 -19760 3145 8205 -11487 12512 16478 684 2940 7794 -36648 -2735zm8136 66186l-615 -7111 7179 -547 -1572 -18256 -7111 616 -616 -7043 13880 -1162 69 684 0 0 0 410 68 342 137 342 205 342 410 615 547 547 615 478 753 411 684 342 751 205 0 0 1026 273 1162 206 1231 68 1368 68 0 0 1641 -68 1777 -68 14496 -1231 1982 22836 -26528 2188 273 3351 -13812 1162z"/>
   <polygon class="fil2 str0" points="245598,12985 245598,12985 239582,13053 233633,13327 227685,13669 221805,14216 215993,14899 210181,15720 204437,16609 198694,17703 193088,18934 187481,20301 181943,21805 176404,23446 171003,25224 165601,27138 160337,29121 155072,31309 149875,33565 144747,35959 139688,38420 134696,41086 129842,43821 124987,46693 120201,49633 115552,52710 110971,55924 106458,59205 102014,62624 97638,66111 93399,69735 89228,73427 85126,77256 81160,81153 77194,85119 73434,89221 69741,93392 66118,97631 62631,102007 59212,106452 55930,110964 52716,115545 49639,120195 46700,124981 43828,129835 41093,134690 38426,139681 35965,144741 33572,149869 31315,155065 29128,160330 27144,165595 25230,170996 23452,176398 21811,181936 20307,187474 18940,193081 17709,198688 16615,204431 15658,210175 14906,215986 14222,221798 13675,227678 13333,233627 13060,239575 12991,245592 12991,245592 13060,250515 13196,255506 13470,260429 13812,265284 14290,270138 14837,274993 15521,279779 16273,284497 17094,289283 18051,293932 19076,298650 20239,303231 21470,307812 22769,312393 24136,316906 25640,321419 27213,325794 28922,330239 30632,334546 32478,338854 34392,343093 36375,347332 38495,351503 40683,355605 42871,359708 45195,363742 47588,367708 50118,371605 52648,375434 55246,379263 57981,383023 60716,386715 63588,390339 66528,393963 69468,397450 72545,400937 75622,404356 78835,407638 82117,410920 85399,414133 88749,417279 92236,420355 95723,423364 99279,426304 102903,429176 106527,431979 110287,434714 114048,437380 117945,439978 121842,442440 125740,444901 129773,447226 133808,449551 137910,451739 142081,453858 146251,455841 150491,457824 154798,459670 159106,461516 163482,463157 167926,464798 172370,466302 176883,467738 181396,469106 211685,416663 211685,416663 207925,415911 204233,415022 200540,414133 196916,413108 193293,412014 189669,410851 186182,409621 182626,408253 179139,406886 175721,405450 172302,403877 168952,402305 165670,400664 162388,398886 159106,397108 155961,395194 152747,393279 149670,391297 146594,389177 143585,387057 140645,384869 137705,382613 134833,380357 132030,377964 129226,375502 126560,373041 123893,370511 121227,367913 118697,365246 116236,362579 113774,359776 111381,356973 109056,354170 106800,351230 104612,348289 102424,345281 100373,342204 98322,339127 96407,335982 94493,332768 92647,329555 90937,326273 89228,322991 87587,319641 86083,316222 84579,312804 83211,309316 81844,305829 80613,302274 79382,298719 78288,295095 77263,291471 76305,287847 75416,284086 74596,280394 73912,276634 73297,272805 72681,268976 72271,265147 71861,261318 71519,257421 71314,253455 71177,249558 71177,245592 71177,245592 71177,241080 71382,236635 71656,232191 72066,227747 72545,223371 73160,218995 73844,214687 74664,210448 75622,206209 76647,201970 77741,197799 78972,193697 80340,189662 81707,185629 83279,181594 84852,177697 86561,173800 88339,169971 90253,166142 92236,162450 94288,158758 96407,155134 98663,151578 100920,148023 103313,144604 105774,141186 108372,137904 110971,134622 113706,131408 116441,128331 119312,125255 122252,122246 125261,119306 128269,116434 131414,113699 134628,110964 137910,108366 141192,105836 144611,103307 148029,100913 151585,98657 155140,96401 158764,94281 162456,92230 166148,90247 169977,88333 173806,86555 177703,84846 181601,83273 185635,81769 189669,80333 193703,78965 197805,77735 201976,76641 206215,75615 210454,74726 214693,73906 219001,73154 223377,72538 227753,72060 232197,71649 236642,71376 241086,71239 245598,71171 245598,71171 250111,71239 254555,71376 259000,71649 263444,72060 267820,72538 272128,73154 276435,73906 280743,74726 284982,75615 289153,76641 293323,77735 297426,78965 301528,80333 305562,81769 309528,83273 313494,84846 317391,86555 321220,88333 324980,90247 328741,92230 332433,94281 336057,96401 339612,98657 343100,100913 346586,103307 349937,105836 353287,108366 356569,110964 359714,113699 362860,116434 365936,119306 368945,122246 371816,125255 374688,128331 377491,131408 380158,134622 382824,137904 385354,141186 387816,144604 390209,148023 392534,151578 394790,155134 396909,158758 398961,162450 400943,166142 402790,169971 404636,173800 406277,177697 407918,181594 409422,185629 410858,189662 412157,193697 413388,197799 414550,201970 415575,206209 416464,210448 417285,214687 418037,218995 418584,223371 419131,227747 419473,232191 419815,236635 419951,241080 420020,245592 420020,245592 419951,249558 419815,253455 419610,257421 419336,261318 418926,265147 418447,268976 417900,272805 417285,276634 416533,280394 415712,284086 414892,287847 413934,291471 412909,295095 411746,298719 410584,302274 409354,305829 407986,309316 406550,312804 405114,316222 403542,319641 401969,322991 400260,326273 398482,329555 396704,332768 394790,335982 392807,339127 390824,342204 388705,345281 386585,348289 384397,351230 382141,354170 379816,356973 377423,359776 374962,362579 372500,365246 369902,367913 367304,370511 364637,373041 361902,375502 359167,377964 356364,380357 353492,382613 350552,384869 347544,387057 344535,389177 341527,391297 338382,393279 335236,395194 332023,397108 328809,398886 325527,400664 322177,402305 318827,403877 315408,405450 311989,406886 308502,408253 305015,409621 301460,410851 297904,412014 294281,413108 290588,414133 286965,415022 283204,415911 279512,416663 309733,469106 309733,469106 314314,467738 318827,466302 323271,464798 327647,463157 332023,461516 336399,459670 340638,457824 344877,455841 349116,453858 353287,451739 357321,449551 361423,447226 365389,444901 369355,442440 373252,439978 377081,437380 380842,434714 384602,431979 388294,429176 391918,426304 395474,423364 398961,420355 402380,417279 405798,414133 409080,410920 412362,407638 415507,404356 418652,400937 421661,397450 424669,393963 427609,390339 430412,386715 433216,383023 435883,379263 438549,375434 441079,371605 443540,367708 445933,363742 448258,359708 450515,355605 452702,351503 454754,347332 456737,343093 458719,338854 460497,334546 462275,330239 463916,325794 465488,321419 466993,316906 468428,312393 469728,307812 470958,303231 472052,298650 473146,293932 474035,289283 474924,284497 475676,279779 476291,274993 476907,270138 477317,265284 477727,260429 477932,255506 478137,250515 478137,245592 478137,245592 478069,239575 477864,233627 477454,227678 476975,221798 476291,215986 475471,210175 474514,204431 473420,198688 472189,193081 470821,187474 469317,181936 467676,176398 465967,170996 464052,165595 462001,160330 459882,155065 457625,149869 455232,144741 452702,139681 450104,134690 447369,129835 444498,124981 441489,120195 438412,115545 435267,110964 431985,106452 428567,102007 425079,97631 421456,93392 417763,89221 413934,85119 410037,81153 406072,77256 401969,73427 397798,69735 393491,66111 389183,62624 384739,59205 380226,55924 375645,52710 370928,49633 366210,46693 361355,43821 356432,41086 351441,38420 346450,35959 341322,33565 336125,31309 330861,29121 325527,27138 320194,25224 314724,23446 309254,21805 303716,20301 298110,18934 292435,17703 286759,16609 281016,15720 275204,14899 269393,14216 263513,13669 257564,13327 251615,13053 "/>
   <polygon class="fil3" points="111313,82384 111313,82384 110560,82521 109808,82726 109056,83136 108304,83683 107484,84435 111791,89632 112680,88948 112680,88948 113159,88470 113637,87991 113979,87512 114253,87033 114253,87033 114389,86555 114526,86145 114526,85735 114458,85324 114389,84914 114184,84504 113911,84025 113637,83615 113637,83615 113090,83136 112543,82726 111928,82521 "/>
   <polygon class="fil3" points="320878,60846 318075,59684 315340,66522 318075,67616 318075,67616 318553,67820 319237,68026 320058,68231 321015,68299 321015,68299 321562,68299 322040,68163 322519,68026 322861,67752 323271,67479 323613,67137 323887,66658 324091,66180 324091,66180 324297,65428 324434,64812 324365,64128 324228,63513 324228,63513 324023,63103 323750,62761 323408,62419 323066,62077 322587,61735 322109,61393 321493,61120 "/>
   <polygon class="fil3" points="121364,91068 121364,91068 120885,91136 120406,91273 120406,91273 119928,91409 119449,91615 118629,92093 117740,92709 116988,93324 115757,94418 120543,100093 122047,98794 122047,98794 122663,98315 123346,97631 123688,97221 124030,96743 124372,96264 124577,95717 124577,95717 124714,95170 124782,94623 124714,94144 124577,93666 124440,93256 124235,92914 123825,92298 123825,92298 123415,91888 122868,91478 122594,91341 122184,91204 121842,91136 "/>
   <polygon class="fil3" points="404772,125665 398961,129904 400328,131750 400328,131750 400875,132365 401354,132981 401901,133459 402380,133870 402926,134143 403405,134417 403884,134553 404362,134553 404362,134553 404841,134553 405319,134417 405798,134211 406277,133938 406277,133938 406619,133596 406892,133323 407166,133049 407371,132707 407507,132365 407644,132023 407713,131613 407713,131271 407644,130861 407576,130382 407302,129562 406824,128605 406140,127579 "/>
   <polygon class="fil1 str2" points="263714,468149 298516,468149 280603,438544 "/>
   <polygon class="fil1 str2" points="194521,468149 229323,468149 211409,438544 "/>
   <polygon class="fil1 str2" points="229118,468149 263920,468149 246006,438544 "/>
   <polygon class="fil1 str2" points="211409,439091 246211,439091 228297,409485 "/>
   <polygon class="fil1 str2" points="246006,439091 280808,439091 262894,409485 "/>
   <polygon class="fil1 str2" points="227750,410442 262620,410442 244707,380837 "/>
   <polyline class="fil2 str3" points="314857,479841 303361,483445 319575,478405 324293,476833 328942,475192 333523,473482 338036,471704 342548,469790 346993,467807 351437,465756 355813,463568 360120,461312 364359,458987 368598,456594 372701,454132 376803,451535 380906,448936 384871,446202 388768,443398 392666,440526 396495,437587 400255,434578 403947,431502 407571,428356 411126,425074 414682,421792 418100,418442 421451,415023 424801,411468 428015,407913 431159,404289 434305,400597 437313,396836 440253,393076 443125,389179 445928,385281 448663,381247 451330,377213 453859,373111 456389,368940 458782,364769 461107,360530 463363,356223 465483,351847 467602,347471 469585,342958 471500,338514 473277,333933 475055,329352 476696,324703 478200,320054 479705,315336 481072,310550 482303,305764 483465,300977 484559,296055 485516,291200 486405,286209 487225,281286 487909,276226 488456,271235 488935,266176 489276,261048 489550,255920 489755,250792 489755,245595 489755,245595 489687,239305 489482,233015 489071,226793 488525,220639 487841,214486 486952,208400 485995,202384 484832,196367 483533,190419 482097,184539 480525,178727 478816,172984 476970,167240 474987,161634 472867,156027 470611,150557 468218,145087 465688,139686 463090,134421 460286,129156 457415,124028 454407,118969 451330,113978 448048,109055 444697,104200 441279,99483 437723,94833 434031,90252 430202,85740 426374,81364 422340,77124 418237,72885 414066,68783 409759,64818 405383,60920 400939,57160 396358,53468 391709,49912 386922,46425 382136,43075 377213,39861 372222,36716 367163,33708 361966,30836 356770,28101 351437,25435 346104,22973 340634,20580 335096,18324 329557,16204 323883,14221 318208,12376 312464,10666 306584,9094 300704,7658 294824,6359 288807,5197 282790,4171 276705,3350 270552,2667 264398,2120 258176,1709 251886,1436 245596,1368 245596,1368 239305,1436 233015,1709 226793,2120 220640,2667 214486,3350 208401,4171 202384,5197 196367,6359 190419,7658 184539,9094 178727,10666 172984,12376 167240,14221 161634,16204 156027,18324 150557,20580 145087,22973 139686,25435 134421,28101 129156,30836 124029,33708 118969,36716 113978,39861 109055,43075 104201,46425 99483,49912 94833,53468 90252,57160 85740,60920 81364,64818 77125,68783 72886,72885 68783,77124 64818,81364 60921,85740 57160,90252 53468,94833 49912,99483 46425,104200 43075,109055 39861,113978 36717,118969 33708,124028 30837,129156 28102,134421 25435,139686 22974,145087 20580,150557 18324,156027 16204,161634 14222,167240 12376,172984 10666,178727 9094,184539 7658,190419 6359,196367 5197,202384 4171,208400 3351,214486 2667,220639 2120,226793 1710,233015 1436,239305 1368,245595 1368,245595 1436,250792 1573,255920 1846,261048 2257,266107 2735,271235 3282,276226 3966,281217 4718,286209 5607,291132 6633,296055 7658,300909 8821,305764 10119,310550 11487,315336 12923,320054 14495,324703 16136,329352 17845,333933 19692,338446 21537,342958 23521,347403 25640,351779 27760,356154 30016,360462 32341,364701 34802,368940 37263,373111 39861,377145 42460,381247 45195,385213 47998,389110 50870,393007 53810,396836 56818,400597 59963,404221 63109,407913 66322,411468 69672,414955 73023,418374 76441,421724 79928,425074 83552,428288 87176,431433 90868,434510 94628,437518 98389,440458 102286,443330 106252,446133 110217,448868 114252,451535 118354,454065 122524,456526 126695,458987 131003,461312 135310,463500 139618,465688 144062,467739 148506,469722 153019,471636 157531,473414 162112,475192 166762,476764 171480,478337 179416,481072 189260,483796 "/>
  </g>
 </g>
</svg>
